<svg id="Layer_1" data-name="Layer 1" xmlns="http://www.w3.org/2000/svg" viewBox="0 0 629.18029 108.08961"><defs><style>.cls-1{fill:#fff;}</style></defs><path class="cls-1" d="M469.6976,24.66h40.81a.67.67,0,0,1,.76.76V37.56a.67.67,0,0,1-.76.75h-6.53a.67.67,0,0,1-.76-.75V33a.4.4,0,0,0-.45-.45h-7.74a.4.4,0,0,0-.45.45V68.35a.4.4,0,0,0,.45.46h4a.67.67,0,0,1,.76.76v5.91a.67.67,0,0,1-.76.76h-17.85a.67.67,0,0,1-.76-.76V69.57a.67.67,0,0,1,.76-.76h3.94a.41.41,0,0,0,.46-.46V33a.4.4,0,0,0-.46-.45h-7.74a.4.4,0,0,0-.45.45v4.56a.67.67,0,0,1-.76.75h-6.47a.67.67,0,0,1-.76-.75V25.42a.67.67,0,0,1,.76-.76Z" transform="translate(-4.04461 -2.71)"/><path class="cls-1" d="M523.74759,38.85a16.52,16.52,0,0,1,9.56,2.69,13.8,13.8,0,0,1,5.46,7.39q1.21005,3.72,1.21,11c0,.51-.28.76-.83.76h-22.53a.41.41,0,0,0-.46.46,7.9393,7.9393,0,0,0,.54,2.85q1.89,5.55,8.19,5.54a11,11,0,0,0,8.57-3.49q.59994-.6,1.14-.15l4.47,3.94a.7.7,0,0,1,.08,1.07q-5.31006,6.21-15,6.22a17.00009,17.00009,0,0,1-9.75-2.7,13.73992,13.73992,0,0,1-5.5-7.47,29.18028,29.18028,0,0,1-1.29-9,29.7503,29.7503,0,0,1,1.22-9,13.56,13.56,0,0,1,5.5-7.43A16.59991,16.59991,0,0,1,523.74759,38.85Zm.08,7.2q-5.62,0-7.21,4.7a9.92,9.92,0,0,0-.46,3.11.41.41,0,0,0,.46.46h14.34a.40007.40007,0,0,0,.45-.46,9.93,9.93,0,0,0-.45-3.11,6.69,6.69,0,0,0-2.66-3.45A7.99993,7.99993,0,0,0,523.8276,46.05Z" transform="translate(-4.04461 -2.71)"/><path class="cls-1" d="M561.9476,38.85q7.59,0,12.59,2.88a1,1,0,0,1,.61,1v8.35a.67.67,0,0,1-.76.76h-6.45a.67.67,0,0,1-.75-.76V47.72a.65.65,0,0,0-.38-.53,10.78,10.78,0,0,0-4.63-.76q-5.93,0-7.51,4.78a22.54039,22.54039,0,0,0-.76,6.75,22.87082,22.87082,0,0,0,.76,6.83q1.59,4.69,7.51,4.7a11.33007,11.33007,0,0,0,4.63-.68.54.54,0,0,0,.38-.53V64.86a.66.66,0,0,1,.75-.75h6.45a.67.67,0,0,1,.76.75v8.42a1,1,0,0,1-.61,1,26.9,26.9,0,0,1-12.59,2.81q-12.36,0-15.55-9.86a30.19987,30.19987,0,0,1-1.14-9.26,29.29034,29.29034,0,0,1,1.14-9,13.69991,13.69991,0,0,1,5.65-7.47A18,18,0,0,1,561.9476,38.85Z" transform="translate(-4.04461 -2.71)"/><path class="cls-1" d="M581.60757,24.66h11.45a.67.67,0,0,1,.76.76V43.09h.07q3-4.25,9.49-4.24a11.76,11.76,0,0,1,9.14,3.79,14.00006,14.00006,0,0,1,3.45,9.78V68.35a.4.4,0,0,0,.45.46h3.11a.67.67,0,0,1,.76.76v5.91a.67.67,0,0,1-.76.76h-15.77a.67.67,0,0,1-.76-.76V69.57a.67.67,0,0,1,.76-.76h3.26a.40007.40007,0,0,0,.45-.46V54.4a9,9,0,0,0-1.77-5.81,7,7,0,0,0-9.89673-.23326q-.11939.11387-.23327.23326a8.84009,8.84009,0,0,0-1.78,5.81V68.35a.4.4,0,0,0,.45.46h3.27a.67.67,0,0,1,.75.76v5.91a.67.67,0,0,1-.75.76h-15.9a.67.67,0,0,1-.76-.76V69.57a.67.67,0,0,1,.76-.76h3.26a.40007.40007,0,0,0,.45-.46V32.55a.4.4,0,0,0-.45-.46h-3.26a.67.67,0,0,1-.76-.75V25.42a.67.67,0,0,1,.76-.76Z" transform="translate(-4.04461 -2.71)"/><path class="cls-1" d="M629.6976,68.81h0a3.72,3.72,0,1,0,3.52222,3.52219A3.72,3.72,0,0,0,629.6976,68.81Zm0,6.86a3.14,3.14,0,0,1,0-6.28h0a3.14,3.14,0,0,1,0,6.28Z" transform="translate(-4.04461 -2.71)"/><path class="cls-1" d="M630.3876,72.65h0a1.07276,1.07276,0,0,0,.43-1.86,2.20014,2.20014,0,0,0-1.29-.31,7.40031,7.40031,0,0,0-1.17.1v4.14h.66V72.9h.46a.77.77,0,0,1,.88147.63934.76079.76079,0,0,1,.00854.08066,3.19089,3.19089,0,0,0,.28,1.06h.69a3.71067,3.71067,0,0,1-.26-1C630.99759,73.05,630.74759,72.72,630.3876,72.65Zm-.89-.26h-.48V71a4.6404,4.6404,0,0,1,.48,0c.74,0,1,.36,1,.73S630.03763,72.39,629.49759,72.39Z" transform="translate(-4.04461 -2.71)"/><path class="cls-1" d="M226.76761,23.83a28.57044,28.57044,0,0,1,9,1.4,20.34,20.34,0,0,1,6.87,3.6,1.39,1.39,0,0,1,.53,1.06V39a.68.68,0,0,1-.76.76h-6.83a.67.67,0,0,1-.76-.76V34.52a.74.74,0,0,0-.3-.61,14.29,14.29,0,0,0-8-2q-8.34,0-10.69,6.9-1.22,3.8-1.21,11.83,0,8.58,1,11.68a9.74008,9.74008,0,0,0,3.6,5,12.1,12.1,0,0,0,7,1.71q5.61,0,8.41-1.82a1.38,1.38,0,0,0,.76-1.22V55.91a.4.4,0,0,0-.45-.45h-8.24a.67.67,0,0,1-.76-.76V48.63a.67.67,0,0,1,.76-.76h16.53a.67.67,0,0,1,.76.76V70.4a2.10005,2.10005,0,0,1-1,1.82q-6.75,4.86-17,4.86-15.24,0-19.19-12.06-1.29-3.87-1.29-14.42,0-9.93,1.44-14.26Q210.9876,23.83,226.76761,23.83Z" transform="translate(-4.04461 -2.71)"/><path class="cls-1" d="M266.83761,38.84a16.5,16.5,0,0,1,9.56,2.7,13.8,13.8,0,0,1,5.46,7.39q1.21,3.72,1.22,11c0,.51-.28.76-.84.76h-22.54a.4.4,0,0,0-.45.46,8.15032,8.15032,0,0,0,.53,2.8q1.89,5.55,8.19,5.54a11,11,0,0,0,8.57-3.49q.61-.6,1.14-.15l4.48,3.94a.7.7,0,0,1,.07,1.07q-5.31,6.21-15,6.22a16.93986,16.93986,0,0,1-9.74-2.7,13.68993,13.68993,0,0,1-5.5-7.47,29.18,29.18,0,0,1-1.29-9,29.77,29.77,0,0,1,1.21-9,13.61,13.61,0,0,1,5.5-7.43A16.62992,16.62992,0,0,1,266.83761,38.84Zm.08,7.21q-5.61,0-7.21,4.7a9.93,9.93,0,0,0-.45,3.11.4.4,0,0,0,.45.46h14.34a.41.41,0,0,0,.46-.46,9.92028,9.92028,0,0,0-.46-3.11,6.61989,6.61989,0,0,0-2.65-3.45A8,8,0,0,0,266.9176,46.05Z" transform="translate(-4.04461 -2.71)"/><path class="cls-1" d="M304.5776,38.84a16.76,16.76,0,0,1,9.52,2.66,13.56,13.56,0,0,1,5.5,7.43,29.30039,29.30039,0,0,1,1.22,9,29.30039,29.30039,0,0,1-1.22,9,13.56,13.56,0,0,1-5.5,7.43,18.49,18.49,0,0,1-19.11,0,13.56,13.56,0,0,1-5.5-7.43,29.31928,29.31928,0,0,1-1.21-9,29.31928,29.31928,0,0,1,1.21-9,13.56,13.56,0,0,1,5.5-7.43A16.87993,16.87993,0,0,1,304.5776,38.84Zm0,7.59q-5.38,0-6.9,4.78a23.4593,23.4593,0,0,0-.76,6.75,22.99933,22.99933,0,0,0,.76,6.75q1.66,4.79,6.9,4.78a6.61,6.61,0,0,0,6.83-4.78,23.3397,23.3397,0,0,0,.76-6.75,23.81958,23.81958,0,0,0-.76-6.75Q309.89761,46.43,304.5776,46.43Z" transform="translate(-4.04461 -2.71)"/><path class="cls-1" d="M348.0076,39.15a16.88021,16.88021,0,0,1,3.56.38c.51.1.76.35.76.76v6.6c0,.65-.3.91-.91.75a30.00014,30.00014,0,0,0-4.47-.6q-8.20995,0-8.2,9.4V68.35a.41.41,0,0,0,.46.46h3.56a.67.67,0,0,1,.76.76v5.91a.67.67,0,0,1-.76.76h-16.23a.67.67,0,0,1-.76-.76V69.57a.67.67,0,0,1,.76-.76h3.26a.4.4,0,0,0,.46-.46V47.57a.41.41,0,0,0-.46-.46h-3.26a.67.67,0,0,1-.76-.76V40.44a.67.67,0,0,1,.76-.76h11.46a.67.67,0,0,1,.75.76v3.79h.08A10.08,10.08,0,0,1,348.0076,39.15Z" transform="translate(-4.04461 -2.71)"/><path class="cls-1" d="M369.1076,38.84q6.75,0,9.49,4.33h.1V40.44a.67.67,0,0,1,.76-.76h11.45a.67.67,0,0,1,.76.76v5.91a.67.67,0,0,1-.76.76h-3.26a.4.4,0,0,0-.45.46V74q0,8-4.37,12.36t-12.7,4.4a19.99993,19.99993,0,0,1-7.55-1.48,13.9,13.9,0,0,1-5.73-4,.7.7,0,0,1,.08-1.06l4.48-4.48a.68.68,0,0,1,1.13,0,11.24,11.24,0,0,0,8,3.41q8.19,0,8.19-8.72V71h-.07q-2.75,4.24-9.49,4.25a13.07,13.07,0,0,1-7.87-2.25,12.82,12.82,0,0,1-4.63-6.6,30.48987,30.48987,0,0,1-1.21-9.33,30.12,30.12,0,0,1,1.24-9.27Q359.54759,38.85,369.1076,38.84Zm2.2,7.59a6.2,6.2,0,0,0-6.45,4.63,18.77,18.77,0,0,0-.83,6,17.89014,17.89014,0,0,0,.83,6,6.83,6.83,0,0,0,13,0,17.88989,17.88989,0,0,0,.83-6,18.77006,18.77006,0,0,0-.83-6,6.25,6.25,0,0,0-6.55-4.63Z" transform="translate(-4.04461 -2.71)"/><path class="cls-1" d="M396.4776,39.68h11.45a.67.67,0,0,1,.76.76V68.35a.4.4,0,0,0,.46.46h3.26a.67.67,0,0,1,.76.76v5.91a.67.67,0,0,1-.76.76h-15.93a.67.67,0,0,1-.76-.76V69.57a.67.67,0,0,1,.76-.76h3.22a.4.4,0,0,0,.45-.46V47.57a.4.4,0,0,0-.45-.46h-3.26a.67.67,0,0,1-.76-.76V40.44a.67.67,0,0,1,.8-.76Zm4.47-15h7a.67.67,0,0,1,.76.76V32a.67.67,0,0,1-.76.76h-7a.68.68,0,0,1-.76-.76V25.4a.67.67,0,0,1,.76-.74Z" transform="translate(-4.04461 -2.71)"/><path class="cls-1" d="M432.5676,38.84q8.28,0,11.72,3t3.46,9.79V68.39a.4.4,0,0,0,.45.46h3.26a.67.67,0,0,1,.76.76v5.91a.67.67,0,0,1-.76.76h-10.84a.67.67,0,0,1-.76-.76V72.87h-.08q-3,4.24-10.16,4.25a13.16013,13.16013,0,0,1-8.76-2.89q-3.46-2.88-3.46-8.34,0-5.84,3.84-8.76t10.73-2.92h7.28a.41.41,0,0,0,.46-.46V52.31q0-3.33-1.64-4.85t-5.87-1.56a17.72974,17.72974,0,0,0-3.95.45.48.48,0,0,0-.38.54v3.26a.67.67,0,0,1-.76.76h-6.6a.67.67,0,0,1-.75-.76V42.41a1,1,0,0,1,.6-1A28.05992,28.05992,0,0,1,432.5676,38.84Zm6.68,21.7h-5.92q-7.81,0-7.81,5,0,4.62,6.22,4.62,8,0,8-6.22v-3a.4.4,0,0,0-.49-.4Z" transform="translate(-4.04461 -2.71)"/><path class="cls-1" d="M156.9476,104.58h0a3.11,3.11,0,1,0,3.05962,3.15959q.00048-.02979.00038-.05958a3.08,3.08,0,0,0-3.05992-3.09995l-.02008-.00006Zm0,5.73a2.63,2.63,0,0,1,0-5.25h0a2.56,2.56,0,0,1,2.48007,2.63751l-.00007.00249a2.52,2.52,0,0,1-2.42809,2.60867Z" transform="translate(-4.04461 -2.71)"/><path class="cls-1" d="M157.4976,107.79h0a.84.84,0,0,0,.67-.84.83.83,0,0,0-.31-.71,1.86991,1.86991,0,0,0-1.08-.26,6.45168,6.45168,0,0,0-1,.08v3.46h.55V108h.37a.64.64,0,0,1,.74.61,2.3898,2.3898,0,0,0,.24.88h.58a2.65013,2.65013,0,0,1-.22-.86C158.0076,108.12,157.79761,107.85,157.4976,107.79Zm-.75-.22h-.4V106.4a3.291,3.291,0,0,1,.4,0c.62,0,.84.31.84.61s-.38.56-.84.56Z" transform="translate(-4.04461 -2.71)"/><path class="cls-1" d="M58.9176,3.52Z" transform="translate(-4.04461 -2.71)"/><path class="cls-1" d="M73.2276,37.4v27h14.47l1.53-8.11h6.52c-2.39,12.36-14.69,20.92-30.28,20.92a26.673,26.673,0,0,1-3.22-.13c-8.64-.66-16.58-3.44-22.36-7.83-6.38-4.83-9.73-11.3-9.7-18.69a27.62,27.62,0,0,1,9.51-20.69,35.33,35.33,0,0,1,22-8.58h1.58a45.43,45.43,0,0,1,28,10.23c.39.33.48.4.58.47a5.35923,5.35923,0,0,1,.56.45l.22.18h16.65V3.51h-16.92v8.34c-7.11-4.55-19.26-9.14-33.45-9.14h-.22A58.44,58.44,0,0,0,17.4576,20c-8.76,9-13.55,19.87-13.41,30.78.16,11.72,5.8,22.64,15.91,30.75,9.66,7.76,22.77,12.21,35.94,12.21,1.63,0,3.28-.07,4.9-.2,13.05-1.07,24.62-4,32.79-8.42v3.6h17.93V56.34h6.18V93.9h-9.34v16.89h41.68V93.9h-9.34V56.33h21.11l1.47,8.11h14.57v-27ZM58.9176,3.52Z" transform="translate(-4.04461 -2.71)"/></svg>