<?xml version="1.0" encoding="UTF-8" standalone="no"?>
<!-- Created with Inkscape (http://www.inkscape.org/) -->

<svg
   xmlns:dc="http://purl.org/dc/elements/1.1/"
   xmlns:cc="http://creativecommons.org/ns#"
   xmlns:rdf="http://www.w3.org/1999/02/22-rdf-syntax-ns#"
   xmlns:svg="http://www.w3.org/2000/svg"
   xmlns="http://www.w3.org/2000/svg"
   xmlns:sodipodi="http://sodipodi.sourceforge.net/DTD/sodipodi-0.dtd"
   xmlns:inkscape="http://www.inkscape.org/namespaces/inkscape"
   width="388.24353"
   height="125.00854"
   id="svg3399"
   version="1.1"
   inkscape:version="0.48.1 "
   sodipodi:docname="New document 4">
  <defs
     id="defs3401">
    <clipPath
       id="clipPath2999"
       clipPathUnits="userSpaceOnUse">
      <path
         inkscape:connector-curvature="0"
         id="path3001"
         d="m 157.5,436.5 313.975,0 0,135 -313.975,0 0,-135 z" />
    </clipPath>
    <clipPath
       id="clipPath3007"
       clipPathUnits="userSpaceOnUse">
      <path
         inkscape:connector-curvature="0"
         id="path3009"
         d="m 182.481,460.517 252.2725,0 0,81.2992 -252.2725,0 0,-81.2992 z" />
    </clipPath>
  </defs>
  <sodipodi:namedview
     id="base"
     pagecolor="#ffffff"
     bordercolor="#666666"
     borderopacity="1.0"
     inkscape:pageopacity="0.0"
     inkscape:pageshadow="2"
     inkscape:zoom="1"
     inkscape:cx="217.07879"
     inkscape:cy="107.28628"
     inkscape:document-units="px"
     inkscape:current-layer="layer1"
     showgrid="false"
     fit-margin-top="0"
     fit-margin-left="0"
     fit-margin-right="0"
     fit-margin-bottom="0"
     inkscape:window-width="1024"
     inkscape:window-height="721"
     inkscape:window-x="-4"
     inkscape:window-y="-4"
     inkscape:window-maximized="1" />
  <metadata
     id="metadata3404">
    <rdf:RDF>
      <cc:Work
         rdf:about="">
        <dc:format>image/svg+xml</dc:format>
        <dc:type
           rdf:resource="http://purl.org/dc/dcmitype/StillImage" />
        <dc:title></dc:title>
      </cc:Work>
    </rdf:RDF>
  </metadata>
  <g
     inkscape:label="Layer 1"
     inkscape:groupmode="layer"
     id="layer1"
     transform="translate(-153.80596,-512.38703)">
    <g
       id="g2995"
       transform="matrix(1.5394809,0,0,-1.5394809,-127.24522,1346.3527)">
      <g
         id="g2997"
         clip-path="url(#clipPath2999)">
        <g
           id="g3003">
          <g
             id="g3005"
             clip-path="url(#clipPath3007)">
            <path
               inkscape:connector-curvature="0"
               d="m 276.5477,510.6081 c 2.8561,-0.9885 4.5044,-1.0984 7.8009,-1.0984 9.3385,0 15.2712,5.0538 15.2712,13.6233 0,6.702 -3.7354,15.7107 -15.2712,15.7107 l -7.8009,0 0,-28.2356 z m 0,-20.4352 c 0,-7.8004 1.8672,-9.9973 7.1416,-9.9973 l 0,-1.8685 -22.6329,0 0,1.8685 c 4.3947,0 7.1412,1.4287 7.1412,9.7783 l 0,39.4413 c 0,7.6909 -1.8675,9.9977 -7.1412,9.9977 l 0,1.868 22.9616,0 c 17.3593,0 24.3912,-9.2286 24.3912,-17.9081 0,-10.4375 -7.9106,-16.2604 -22.1939,-16.2604 -2.7464,0 -5.053,0.1101 -9.6676,0.6592"
               style="fill:#011F5B;fill-opacity:1;fill-rule:nonzero;stroke:none"
               id="path3011" />
            <path
               inkscape:connector-curvature="0"
               d="m 331.0401,503.9066 c 0.3306,8.5695 -5.4919,12.0852 -10.4367,12.0852 -6.4809,0 -10.3274,-4.8345 -10.7673,-12.0852 l 21.204,0 z m -21.204,-1.868 c -0.2185,-17.4693 10.2182,-21.863 15.4917,-21.863 5.3846,0 8.1301,1.8667 13.7341,8.1307 l 0,-2.8574 c -4.7243,-6.0433 -9.2293,-8.3496 -16.0407,-8.3496 -12.1961,0 -20.9846,8.459 -20.9846,20.2152 0,11.7554 8.57,20.9845 19.5557,20.9845 9.0099,0 17.3604,-7.2511 16.8103,-16.2604"
               style="fill:#011F5B;fill-opacity:1;fill-rule:nonzero;stroke:none"
               id="path3013" />
            <path
               inkscape:connector-curvature="0"
               d="m 380.5893,486.7681 c 0,-5.0543 1.1001,-6.5925 6.592,-6.5925 l 0,-1.8685 -20.7641,0 0,1.8685 c 5.2725,0 6.7013,1.2079 6.7013,4.8335 l 0,20.3257 c 0,6.2622 -4.5049,8.8988 -8.6792,8.8988 -3.8447,0 -7.2514,-2.4166 -11.096,-7.5805 l 0,-19.0073 c 0,-5.932 0.7685,-7.4702 6.592,-7.4702 l 0,-1.8685 -20.5456,0 0,1.8685 c 5.1642,0 6.4837,0.4398 6.4837,7.4702 l 0,21.8639 c 0,4.7239 -1.2103,5.7129 -6.4837,5.7129 l 0,1.8676 12.0849,1.2088 1.8687,0 0,-7.8008 c 4.6141,5.2737 9.12,7.8008 14.0628,7.8008 6.4828,0 13.1832,-4.6146 13.1832,-13.9531"
               style="fill:#011F5B;fill-opacity:1;fill-rule:nonzero;stroke:none"
               id="path3015" />
            <path
               inkscape:connector-curvature="0"
               d="m 428.1614,486.7681 c 0,-5.0543 1.0982,-6.5925 6.5921,-6.5925 l 0,-1.8685 -20.7641,0 0,1.8685 c 5.2734,0 6.7003,1.2079 6.7003,4.8335 l 0,20.3257 c 0,6.2622 -4.5039,8.8988 -8.6782,8.8988 -3.8466,0 -7.2514,-2.4166 -11.0979,-7.5805 l 0,-19.0073 c 0,-5.932 0.7704,-7.4702 6.593,-7.4702 l 0,-1.8685 -20.5457,0 0,1.8685 c 5.1632,0 6.4828,0.4398 6.4828,7.4702 l 0,21.8639 c 0,4.7239 -1.2084,5.7129 -6.4828,5.7129 l 0,1.8676 12.0859,1.2088 1.8668,0 0,-7.8008 c 4.6151,5.2737 9.12,7.8008 14.0628,7.8008 6.4828,0 13.185,-4.6146 13.185,-13.9531"
               style="fill:#011F5B;fill-opacity:1;fill-rule:nonzero;stroke:none"
               id="path3017" />
            <path
               inkscape:connector-curvature="0"
               d="m 263.289,467.1354 c 0,-1.7442 0.4736,-3.0783 2.3309,-3.0783 1.7075,0 2.6051,1.1468 2.6051,3.1414 l 0,3.4642 c 0,0.2616 -0.0501,0.4731 -0.0752,0.6734 -0.0621,0.4491 -0.4861,0.6235 -1.0715,0.6847 l 0,0.3247 2.9414,0 0,-0.3247 c -0.5984,-0.0612 -1.0098,-0.2356 -1.0719,-0.6847 -0.0251,-0.2003 -0.0747,-0.4118 -0.0747,-0.6734 l 0,-3.5144 c 0,-2.6792 -1.7076,-3.6775 -3.3153,-3.6775 -2.6552,0 -3.4776,1.3471 -3.4776,3.6016 l 0,3.7145 c 0,1.1597 0.05,1.0966 -1.072,1.2339 l 0,0.3247 3.3528,0 0,-0.3247 c -1.1216,-0.1373 -1.072,-0.0742 -1.072,-1.2339"
               style="fill:#011F5B;fill-opacity:1;fill-rule:nonzero;stroke:none"
               id="path3019" />
            <path
               inkscape:connector-curvature="0"
               d="m 277.076,463.6212 c -1.5288,1.8072 -3.1158,3.7016 -4.6832,5.5478 l 0,-4.2509 c 0,-0.2004 0.0386,-0.3636 0.0576,-0.5176 0.0483,-0.3471 0.3752,-0.4824 1.0098,-0.5289 l 0,-0.2504 -2.3564,0 0,0.2504 c 0.4619,0.0465 0.7793,0.1818 0.827,0.5289 0.0195,0.154 0.0581,0.3172 0.0581,0.5176 l 0,4.5311 c -0.2695,0.3451 -0.5674,0.6531 -1.1157,0.6531 l 0,0.2505 1.7502,0 c 1.4329,-1.7404 2.9238,-3.5105 4.3567,-5.2511 l 0.019,0 0,3.9523 c 0,0.2022 -0.0386,0.3655 -0.0576,0.5195 -0.0483,0.3469 -0.3752,0.4805 -1.0098,0.5288 l 0,0.2505 2.3568,0 0,-0.2505 c -0.4522,-0.0483 -0.7799,-0.1819 -0.8274,-0.5288 -0.0195,-0.154 -0.058,-0.3173 -0.058,-0.5195 l 0,-5.4328"
               style="fill:#011F5B;fill-opacity:1;fill-rule:nonzero;stroke:none"
               id="path3021" />
            <path
               inkscape:connector-curvature="0"
               d="m 282.0097,464.8235 c 0,-0.8943 -0.038,-0.8461 0.8274,-0.9519 l 0,-0.2504 -2.5868,0 0,0.2504 c 0.8654,0.1058 0.8265,0.0576 0.8265,0.9519 l 0,4.327 c 0,0.8943 0.0389,0.8461 -0.8265,0.9518 l 0,0.2505 2.5868,0 0,-0.2505 c -0.8654,-0.1057 -0.8274,-0.0575 -0.8274,-0.9518"
               style="fill:#011F5B;fill-opacity:1;fill-rule:nonzero;stroke:none"
               id="path3023" />
            <path
               inkscape:connector-curvature="0"
               d="m 286.9335,470.1023 c -0.5282,0 -0.9139,-0.154 -0.5966,-1.0762 0.3753,-1.1355 0.9339,-2.7887 1.4336,-4.2509 0.6155,1.4714 1.2017,2.9521 1.7983,4.4234 0.2404,0.605 -0.01,0.9037 -0.664,0.9037 l 0,0.2505 2.0776,0 0,-0.2505 c -0.2793,0 -0.5966,-0.0964 -0.798,-0.5771 -0.8084,-1.9705 -1.6254,-3.9335 -2.4329,-5.904 l -0.4912,0 c -0.5861,1.6625 -1.2407,3.5197 -1.8268,5.1544 -0.3553,1.028 -0.6536,1.3267 -1.1153,1.3267 l 0,0.2505 2.6153,0"
               style="fill:#011F5B;fill-opacity:1;fill-rule:nonzero;stroke:none"
               id="path3025" />
            <path
               inkscape:connector-curvature="0"
               d="m 292.4635,463.8716 c 0.8654,0.1058 0.8274,0.0576 0.8274,0.9519 l 0,4.327 c 0,0.8943 0.038,0.8461 -0.8274,0.9518 l 0,0.2505 4.2987,0 0,-1.5494 -0.2498,0 c -0.096,0.7125 -0.2888,1.2414 -0.9814,1.2414 l -1.3072,0 0,-2.7499 0.8075,0 c 0.6061,0 0.8655,0.2394 0.8845,0.8369 l 0.2498,0 0,-2.0485 -0.2498,0 c -0.019,0.566 -0.2404,0.9036 -0.8845,0.9036 l -0.8075,0 0,-2.1745 c 0,-0.8164 0.3753,-0.8832 1.2407,-0.8832 1.3937,0 1.3272,0.3933 1.7689,1.4231 l 0.2499,0 -0.2888,-1.7311 -4.731,0"
               style="fill:#011F5B;fill-opacity:1;fill-rule:nonzero;stroke:none"
               id="path3027" />
            <path
               inkscape:connector-curvature="0"
               d="m 300.7151,466.9091 0.7981,0 c 0.8369,0 1.2217,0.6345 1.2217,1.7218 0,1.0484 -0.5776,1.4139 -1.2797,1.4139 l -0.7401,0 0,-3.1357 z m -1.7603,3.4437 2.7987,0 c 0.9709,0 1.9428,-0.5103 1.9428,-1.6347 0,-0.9908 -0.6062,-1.6736 -1.3462,-1.9631 l 0.9424,-1.4324 c 0.4807,-0.7014 1.0194,-1.3749 1.3557,-1.5771 l 0,-0.1243 -0.9899,0 c -0.5682,0 -0.8759,1.0483 -2.0397,2.9816 l -0.9035,0 0,-1.7793 c 0,-0.8943 -0.0389,-0.8461 0.8266,-0.9519 l 0,-0.2504 -2.5869,0 0,0.2504 c 0.8655,0.1058 0.8275,0.0576 0.8275,0.9519 l 0,4.327 c 0,0.8943 0.038,0.8461 -0.8275,0.9518"
               style="fill:#011F5B;fill-opacity:1;fill-rule:nonzero;stroke:none"
               id="path3029" />
            <path
               inkscape:connector-curvature="0"
               d="m 309.4095,468.9204 c -0.0778,0.6716 -0.4436,1.2116 -1.2121,1.2116 -0.5586,0 -1.0583,-0.2895 -1.0583,-1.0002 0,-0.6735 0.6735,-1.0779 1.6359,-1.7997 1.0184,-0.7589 1.3452,-1.2488 1.3452,-2.0484 0,-1.143 -1.1723,-1.7776 -2.3275,-1.7776 -0.6147,0 -1.1438,0.1151 -1.6435,0.3061 -0.039,0.0204 -0.0685,0.0594 -0.0685,0.1355 l 0,1.3841 0.2509,0 c 0.1054,-1.0668 0.8075,-1.4898 1.5485,-1.4898 0.683,0 1.2397,0.5194 1.2397,1.2208 0,0.6253 -0.3353,1.1356 -1.7784,2.0874 -0.5196,0.347 -1.1637,0.7219 -1.1637,1.7702 0,0.8646 0.9614,1.5474 2.0672,1.5474 0.4132,0 0.9623,-0.0482 1.3461,-0.1818 0.058,-0.0204 0.0675,-0.0575 0.0675,-0.1058 l 0,-1.2598"
               style="fill:#011F5B;fill-opacity:1;fill-rule:nonzero;stroke:none"
               id="path3031" />
            <path
               inkscape:connector-curvature="0"
               d="m 313.6124,464.8235 c 0,-0.8943 -0.039,-0.8461 0.8255,-0.9519 l 0,-0.2504 -2.5868,0 0,0.2504 c 0.8664,0.1058 0.8274,0.0576 0.8274,0.9519 l 0,4.327 c 0,0.8943 0.039,0.8461 -0.8274,0.9518 l 0,0.2505 2.5868,0 0,-0.2505 c -0.8645,-0.1057 -0.8255,-0.0575 -0.8255,-0.9518"
               style="fill:#011F5B;fill-opacity:1;fill-rule:nonzero;stroke:none"
               id="path3033" />
            <path
               inkscape:connector-curvature="0"
               d="m 319.1898,464.8235 c 0,-0.8943 -0.0389,-0.8461 0.8275,-0.9519 l 0,-0.2504 -2.5888,0 0,0.2504 c 0.8664,0.1058 0.8275,0.0576 0.8275,0.9519 l 0,5.2213 -0.8645,0 c -0.837,0 -1.0298,-0.5289 -1.3471,-1.1634 l -0.2413,0 0.2603,1.4714 5.319,0 0.2603,-1.4714 -0.2413,0 c -0.3173,0.6345 -0.5101,1.1634 -1.3471,1.1634 l -0.8645,0"
               style="fill:#011F5B;fill-opacity:1;fill-rule:nonzero;stroke:none"
               id="path3035" />
            <path
               inkscape:connector-curvature="0"
               d="m 324.4405,463.8716 c 0.8645,0.1058 0.8274,0.0576 0.8274,0.9519 l 0,1.4807 -1.482,2.9335 c -0.3173,0.6253 -0.5861,0.8646 -1.0279,0.8646 l 0,0.2505 2.451,0 0,-0.2505 c -0.7296,0 -0.6631,-0.3655 -0.4237,-0.8646 l 1.1657,-2.4141 1.3262,2.4141 c 0.3268,0.5862 0.0189,0.8646 -0.5491,0.8646 l 0,0.2505 1.9817,0 0,-0.2505 c -0.2689,0 -0.5282,-0.1243 -0.7885,-0.5864 l -1.6046,-2.9131 c -0.0969,-0.1929 -0.1168,-0.4619 -0.1168,-0.7031 l 0,-1.0762 c 0,-0.8943 -0.0371,-0.8461 0.8274,-0.9519 l 0,-0.2504 -2.5868,0"
               style="fill:#011F5B;fill-opacity:1;fill-rule:nonzero;stroke:none"
               id="path3037" />
            <path
               inkscape:connector-curvature="0"
               d="m 337.4507,468.3563 c 0,1.297 -0.7847,1.3471 -0.9832,1.3471 -1.3471,0 -2.2316,-2.4177 -2.2316,-4.0394 0,-0.6476 0.113,-1.8183 1.0355,-1.8183 1.4212,0 2.1793,2.3434 2.1793,4.5106 z m -4.3614,-2.4307 c 0,1.6329 1.4079,4.0764 3.4893,4.0764 1.6597,0 2.0188,-1.1225 2.0188,-2.2432 0,-1.3711 -1.0963,-4.288 -3.477,-4.288 -1.5951,0 -2.0311,1.284 -2.0311,2.4548"
               style="fill:#011F5B;fill-opacity:1;fill-rule:nonzero;stroke:none"
               id="path3039" />
            <path
               inkscape:connector-curvature="0"
               d="m 344.8674,469.5902 -0.2983,-0.2616 -1.6331,0 c -0.6108,-2.965 -1.6083,-6.9172 -2.318,-8.8116 l -0.5614,0 1.7831,8.8116 -1.1837,0 0.1112,0.5231 1.1723,0 c 0.6602,2.6553 2.8538,2.9299 3.3772,2.9299 0.286,0 0.8845,-0.0501 1.0726,-0.2245 l -0.1511,-0.822 -0.3116,-0.1503 c -0.1738,0.3359 -0.5728,0.7237 -1.0963,0.7237 -0.7477,0 -1.3081,-0.5122 -1.6083,-1.8574 l -0.1359,-0.5994 1.8316,0"
               style="fill:#011F5B;fill-opacity:1;fill-rule:nonzero;stroke:none"
               id="path3041" />
            <path
               inkscape:connector-curvature="0"
               d="m 352.4712,465.1779 c 0,-1.1578 -0.0504,-1.0966 1.0706,-1.2339 l 0,-0.3228 -3.3525,0 0,0.3228 c 1.1219,0.1373 1.0725,0.0761 1.0725,1.2339 l 0,5.609 c 0,1.1597 0.0494,1.0966 -1.0725,1.2339 l 0,0.3247 3.2651,0 c 2.0691,0 3.0913,-0.8219 3.0913,-2.3193 0,-1.7942 -1.6197,-2.7665 -3.5273,-2.6533 l 0,0.2487 c 1.5589,-0.0242 2.2809,0.9091 2.2809,2.2803 0,1.3972 -0.6716,2.0447 -2.0691,2.0447 l -0.759,0"
               style="fill:#011F5B;fill-opacity:1;fill-rule:nonzero;stroke:none"
               id="path3043" />
            <path
               inkscape:connector-curvature="0"
               d="m 358.2643,463.8716 c 0.8664,0.1058 0.8274,0.0576 0.8274,0.9519 l 0,4.327 c 0,0.8943 0.039,0.8461 -0.8274,0.9518 l 0,0.2505 4.2987,0 0,-1.5494 -0.2508,0 c -0.0959,0.7125 -0.2869,1.2414 -0.9794,1.2414 l -1.3082,0 0,-2.7499 0.8075,0 c 0.6061,0 0.8664,0.2394 0.8845,0.8369 l 0.2507,0 0,-2.0485 -0.2507,0 c -0.0181,0.566 -0.2404,0.9036 -0.8845,0.9036 l -0.8075,0 0,-2.1745 c 0,-0.8164 0.3753,-0.8832 1.2397,-0.8832 1.3956,0 1.3282,0.3933 1.7699,1.4231 l 0.2508,0 -0.2897,-1.7311 -4.731,0"
               style="fill:#011F5B;fill-opacity:1;fill-rule:nonzero;stroke:none"
               id="path3045" />
            <path
               inkscape:connector-curvature="0"
               d="m 370.9202,463.6212 c -1.5286,1.8072 -3.1151,3.7016 -4.6835,5.5478 l 0,-4.2509 c 0,-0.2004 0.0389,-0.3636 0.0579,-0.5176 0.0485,-0.3471 0.3743,-0.4824 1.0089,-0.5289 l 0,-0.2504 -2.3541,0 0,0.2504 c 0.4598,0.0465 0.7771,0.1818 0.8256,0.5289 0.0199,0.154 0.057,0.3172 0.057,0.5176 l 0,4.5311 c -0.2689,0.3451 -0.5653,0.6531 -1.1144,0.6531 l 0,0.2505 1.749,0 c 1.4345,-1.7404 2.925,-3.5105 4.3567,-5.2511 l 0.0209,0 0,3.9523 c 0,0.2022 -0.039,0.3655 -0.058,0.5195 -0.0475,0.3469 -0.3743,0.4805 -1.0108,0.5288 l 0,0.2505 2.356,0 0,-0.2505 c -0.4503,-0.0483 -0.779,-0.1819 -0.8256,-0.5288 -0.0199,-0.154 -0.0589,-0.3173 -0.0589,-0.5195 l 0,-5.4328"
               style="fill:#011F5B;fill-opacity:1;fill-rule:nonzero;stroke:none"
               id="path3047" />
            <path
               inkscape:connector-curvature="0"
               d="m 379.5367,463.6212 c -1.5286,1.8072 -3.1151,3.7016 -4.6826,5.5478 l 0,-4.2509 c 0,-0.2004 0.039,-0.3636 0.057,-0.5176 0.0485,-0.3471 0.3753,-0.4824 1.0099,-0.5289 l 0,-0.2504 -2.3551,0 0,0.2504 c 0.4598,0.0465 0.7771,0.1818 0.8256,0.5289 0.0209,0.154 0.0579,0.3172 0.0579,0.5176 l 0,4.5311 c -0.2688,0.3451 -0.5662,0.6531 -1.1153,0.6531 l 0,0.2505 1.7499,0 c 1.4345,-1.7404 2.9241,-3.5105 4.3567,-5.2511 l 0.02,0 0,3.9523 c 0,0.2022 -0.039,0.3655 -0.057,0.5195 -0.0485,0.3469 -0.3753,0.4805 -1.0118,0.5288 l 0,0.2505 2.357,0 0,-0.2505 c -0.4513,-0.0483 -0.78,-0.1819 -0.8265,-0.5288 -0.02,-0.154 -0.0589,-0.3173 -0.0589,-0.5195 l 0,-5.4328"
               style="fill:#011F5B;fill-opacity:1;fill-rule:nonzero;stroke:none"
               id="path3049" />
            <path
               inkscape:connector-curvature="0"
               d="m 385.7972,468.9204 c -0.076,0.6716 -0.4418,1.2116 -1.2113,1.2116 -0.5567,0 -1.0583,-0.2895 -1.0583,-1.0002 0,-0.6735 0.6736,-1.0779 1.635,-1.7997 1.0203,-0.7589 1.347,-1.2488 1.347,-2.0484 0,-1.143 -1.1722,-1.7776 -2.3265,-1.7776 -0.6165,0 -1.1447,0.1151 -1.6463,0.3061 -0.0371,0.0204 -0.0665,0.0594 -0.0665,0.1355 l 0,1.3841 0.2508,0 c 0.1054,-1.0668 0.8065,-1.4898 1.5475,-1.4898 0.6821,0 1.2407,0.5194 1.2407,1.2208 0,0.6253 -0.3353,1.1356 -1.7793,2.0874 -0.5197,0.347 -1.1628,0.7219 -1.1628,1.7702 0,0.8646 0.9604,1.5474 2.0662,1.5474 0.4142,0 0.9633,-0.0482 1.3471,-0.1818 0.058,-0.0204 0.0675,-0.0575 0.0675,-0.1058 l 0,-1.2598"
               style="fill:#011F5B;fill-opacity:1;fill-rule:nonzero;stroke:none"
               id="path3051" />
            <path
               inkscape:connector-curvature="0"
               d="m 389.6732,463.8716 c 0.8664,0.1058 0.8274,0.0576 0.8274,0.9519 l 0,1.4807 -1.4801,2.9335 c -0.3173,0.6253 -0.5871,0.8646 -1.0298,0.8646 l 0,0.2505 2.4529,0 0,-0.2505 c -0.7315,0 -0.665,-0.3655 -0.4237,-0.8646 l 1.1638,-2.4141 1.3262,2.4141 c 0.3268,0.5862 0.0209,0.8646 -0.5473,0.8646 l 0,0.2505 1.9818,0 0,-0.2505 c -0.2708,0 -0.5301,-0.1243 -0.7885,-0.5864 l -1.6065,-2.9131 c -0.0969,-0.1929 -0.115,-0.4619 -0.115,-0.7031 l 0,-1.0762 c 0,-0.8943 -0.0389,-0.8461 0.8256,-0.9519 l 0,-0.2504 -2.5868,0"
               style="fill:#011F5B;fill-opacity:1;fill-rule:nonzero;stroke:none"
               id="path3053" />
            <path
               inkscape:connector-curvature="0"
               d="m 395.5195,463.8716 c 0.8673,0.1058 0.8284,0.0576 0.8284,0.9519 l 0,4.327 c 0,0.8943 0.0389,0.8461 -0.8284,0.9518 l 0,0.2505 2.5887,0 0,-0.2505 c -0.8664,-0.1057 -0.8274,-0.0575 -0.8274,-0.9518 l 0,-4.481 c 0,-0.6735 0.3752,-0.7403 1.2302,-0.7403 1.3956,0 1.3376,0.3933 1.7793,1.4231 l 0.2414,0 -0.2898,-1.7311 -4.7224,0"
               style="fill:#011F5B;fill-opacity:1;fill-rule:nonzero;stroke:none"
               id="path3055" />
            <path
               inkscape:connector-curvature="0"
               d="m 403.888,470.1023 c -0.5291,0 -0.9149,-0.154 -0.5975,-1.0762 0.3771,-1.1355 0.9338,-2.7887 1.4345,-4.2509 0.6137,1.4714 1.2027,2.9521 1.7973,4.4234 0.2414,0.605 -0.008,0.9037 -0.664,0.9037 l 0,0.2505 2.0786,0 0,-0.2505 c -0.2783,0 -0.5975,-0.0964 -0.798,-0.5771 -0.8094,-1.9705 -1.6254,-3.9335 -2.4348,-5.904 l -0.4893,0 c -0.5861,1.6625 -1.2417,3.5197 -1.8278,5.1544 -0.3562,1.028 -0.6536,1.3267 -1.1153,1.3267 l 0,0.2505 2.6163,0"
               style="fill:#011F5B;fill-opacity:1;fill-rule:nonzero;stroke:none"
               id="path3057" />
            <path
               inkscape:connector-curvature="0"
               d="m 411.8614,466.217 -1.0213,3.1264 -0.018,0 -1.1448,-3.1264 2.1841,0 z m -2.3294,-0.3656 -0.4408,-1.2877 c -0.1264,-0.3748 0.057,-0.6921 0.4797,-0.6921 l 0,-0.2504 -1.7489,0 0,0.2504 c 0.2593,0 0.5377,0.1633 0.6915,0.4806 0.4143,0.8461 1.5381,3.9912 2.3361,6.1156 l 0.5406,0 c 0.6526,-1.9334 1.634,-4.8947 1.9608,-5.7501 0.2118,-0.5399 0.3657,-0.8461 0.779,-0.8461 l 0,-0.2504 -2.2411,0 0,0.2504 c 0.6071,0 0.6641,0.3173 0.5101,0.7403 l -0.4141,1.2395"
               style="fill:#011F5B;fill-opacity:1;fill-rule:nonzero;stroke:none"
               id="path3059" />
            <path
               inkscape:connector-curvature="0"
               d="m 421.5352,463.6212 c -1.5285,1.8072 -3.1169,3.7016 -4.6825,5.5478 l 0,-4.2509 c 0,-0.2004 0.037,-0.3636 0.057,-0.5176 0.0484,-0.3471 0.3752,-0.4824 1.0098,-0.5289 l 0,-0.2504 -2.3569,0 0,0.2504 c 0.4617,0.0465 0.779,0.1818 0.8274,0.5289 0.019,0.154 0.058,0.3172 0.058,0.5176 l 0,4.5311 c -0.2689,0.3451 -0.5681,0.6531 -1.1154,0.6531 l 0,0.2505 1.75,0 c 1.4326,-1.7404 2.9241,-3.5105 4.3567,-5.2511 l 0.018,0 0,3.9523 c 0,0.2022 -0.037,0.3655 -0.057,0.5195 -0.0484,0.3469 -0.3752,0.4805 -1.0098,0.5288 l 0,0.2505 2.3569,0 0,-0.2505 c -0.4531,-0.0483 -0.7799,-0.1819 -0.8274,-0.5288 -0.0191,-0.154 -0.058,-0.3173 -0.058,-0.5195 l 0,-5.4328"
               style="fill:#011F5B;fill-opacity:1;fill-rule:nonzero;stroke:none"
               id="path3061" />
            <path
               inkscape:connector-curvature="0"
               d="m 426.0829,464.8235 c 0,-0.8943 -0.0371,-0.8461 0.8274,-0.9519 l 0,-0.2504 -2.5859,0 0,0.2504 c 0.8645,0.1058 0.8275,0.0576 0.8275,0.9519 l 0,4.327 c 0,0.8943 0.037,0.8461 -0.8275,0.9518 l 0,0.2505 2.5859,0 0,-0.2505 c -0.8645,-0.1057 -0.8274,-0.0575 -0.8274,-0.9518"
               style="fill:#011F5B;fill-opacity:1;fill-rule:nonzero;stroke:none"
               id="path3063" />
            <path
               inkscape:connector-curvature="0"
               d="m 432.4308,466.217 -1.0184,3.1264 -0.021,0 -1.1428,-3.1264 2.1822,0 z m -2.3266,-0.3656 -0.4436,-1.2877 c -0.1245,-0.3748 0.0579,-0.6921 0.4826,-0.6921 l 0,-0.2504 -1.7518,0 0,0.2504 c 0.2593,0 0.5377,0.1633 0.6925,0.4806 0.4133,0.8461 1.54,3.9912 2.337,6.1156 l 0.5387,0 c 0.6545,-1.9334 1.6349,-4.8947 1.9626,-5.7501 0.2119,-0.5399 0.3639,-0.8461 0.7781,-0.8461 l 0,-0.2504 -2.2401,0 0,0.2504 c 0.6052,0 0.6622,0.3173 0.5082,0.7403 l -0.4113,1.2395"
               style="fill:#011F5B;fill-opacity:1;fill-rule:nonzero;stroke:none"
               id="path3065" />
            <path
               inkscape:connector-curvature="0"
               d="m 183.0701,541.2438 68.9928,0 c 0,0 0,-33.893 0,-34.4904 -0.4675,-28.1141 -31.9729,-42.891 -35.9362,-42.7556 -4.122,0.1411 -33.1498,14.6007 -33.0635,42.9022 0.001,0.5083 0.007,34.3438 0.007,34.3438"
               style="fill:#ffffff;fill-opacity:1;fill-rule:nonzero;stroke:none"
               id="path3067" />
            <path
               inkscape:connector-curvature="0"
               d="m 183.0636,520.283 c 0.1002,-0.0993 0.004,20.9552 0.004,20.9552 l 68.9423,0 c 0,0 0,-11.2919 0,-20.9557"
               style="fill:#990000;fill-opacity:1;fill-rule:nonzero;stroke:none"
               id="path3069" />
            <path
               inkscape:connector-curvature="0"
               d="m 183.0636,520.283 c 0.1002,-0.0993 0.004,20.9552 0.004,20.9552 l 68.9423,0 c 0,0 0,-11.2919 0,-20.9557 l -68.9465,5e-4 z"
               style="fill:none;stroke:#990000;stroke-width:0.47929999;stroke-linecap:butt;stroke-linejoin:miter;stroke-miterlimit:3.86360002;stroke-opacity:1;stroke-dasharray:none"
               id="path3071" />
            <path
               inkscape:connector-curvature="0"
               d="m 186.9263,489.6051 c 2.6523,-5.5738 5.9305,-10.0622 10.533,-13.8807 l 20.0747,20.2969 19.3239,-19.8201 c 3.9831,3.6423 7.8634,8.0528 10.6434,13.2777 l -29.9905,28.8517 -30.4468,-28.7849"
               style="fill:#011F5B;fill-opacity:1;fill-rule:nonzero;stroke:none"
               id="path3073" />
            <path
               inkscape:connector-curvature="0"
               d="m 186.9263,489.6051 c 2.6523,-5.5738 5.9305,-10.0622 10.533,-13.8807 l 20.0747,20.2969 19.3239,-19.8201 c 3.9831,3.6423 7.8634,8.0528 10.6434,13.2777 l -29.9905,28.8517 -30.4468,-28.7849 -0.1377,0.0594 z"
               style="fill:none;stroke:#011F5B;stroke-width:0.479;stroke-linecap:butt;stroke-linejoin:miter;stroke-miterlimit:3.86360002;stroke-opacity:1;stroke-dasharray:none"
               id="path3075" />
            <path
               inkscape:connector-curvature="0"
               d="m 183.0636,520.1406 68.9423,0.009"
               style="fill:none;stroke:#011F5B;stroke-width:0.47929999;stroke-linecap:butt;stroke-linejoin:miter;stroke-miterlimit:3.86360002;stroke-opacity:1;stroke-dasharray:none"
               id="path3077" />
            <path
               inkscape:connector-curvature="0"
               d="m 234.7357,536.0308 1.8763,0 c 1.3753,0.314 1.8768,1.1114 3.2869,1.1114 1.015,0 1.4928,-0.6739 2.2382,-0.6739 0.6295,0 1.5972,0.7185 2.6575,0.7185 1.0846,0 1.6207,-0.6513 2.3319,-0.9542 0.6294,-0.2695 1.4566,-0.2551 2.3309,-0.2551 -0.0236,-0.6291 0,-1.0025 0,-1.5299 0,-0.539 0.7227,-0.3256 0.7227,-1.2019 0,-0.9207 -0.9333,-0.7408 -0.9333,-1.1114 l -0.0343,-3.4242 c 0.0469,-0.4268 0.9092,-0.4829 0.9092,-1.1337 0,-0.9659 -0.9603,-0.6313 -0.8976,-1.3926 0.0464,-0.5612 0,-1.7515 0,-1.7515 -1.8531,0 -13.7727,-0.1091 -14.3563,-0.0867 0.0354,1.2686 0.2325,1.193 0.2761,1.8044 0.0352,0.494 -1.072,0.7973 -1.072,1.6281 0,0.573 0.6638,0.539 0.7217,1.078 l 0,3.4132 c -0.0343,0.449 -1.0367,0.6736 -1.0024,1.3132 0.0418,0.7659 0.9329,0.668 0.9329,1.1796 0,0.2241 0.0232,1.0553 0.0116,1.2687"
               style="fill:#ffffff;fill-opacity:1;fill-rule:nonzero;stroke:none"
               id="path3079" />
            <path
               inkscape:connector-curvature="0"
               d="m 234.7357,536.0308 1.8763,0 c 1.3753,0.314 1.8768,1.1114 3.2869,1.1114 1.015,0 1.4928,-0.6739 2.2382,-0.6739 0.6295,0 1.5972,0.7185 2.6575,0.7185 1.0846,0 1.6207,-0.6513 2.3319,-0.9542 0.6294,-0.2695 1.4566,-0.2551 2.3309,-0.2551 -0.0236,-0.6291 0,-1.0025 0,-1.5299 0,-0.539 0.7227,-0.3256 0.7227,-1.2019 0,-0.9207 -0.9333,-0.7408 -0.9333,-1.1114 l -0.0343,-3.4242 c 0.0469,-0.4268 0.9092,-0.4829 0.9092,-1.1337 0,-0.9659 -0.9603,-0.6313 -0.8976,-1.3926 0.0464,-0.5612 0,-1.7515 0,-1.7515 -1.8531,0 -13.7727,-0.1091 -14.3563,-0.0867 0.0354,1.2686 0.2325,1.193 0.2761,1.8044 0.0352,0.494 -1.072,0.7973 -1.072,1.6281 0,0.573 0.6638,0.539 0.7217,1.078 l 0,3.4132 c -0.0343,0.449 -1.0367,0.6736 -1.0024,1.3132 0.0418,0.7659 0.9329,0.668 0.9329,1.1796 0,0.2241 0.0232,1.0553 0.0116,1.2687 z"
               style="fill:none;stroke:#011F5B;stroke-width:0.47929999;stroke-linecap:butt;stroke-linejoin:miter;stroke-miterlimit:3.86360002;stroke-opacity:1;stroke-dasharray:none"
               id="path3081" />
            <path
               inkscape:connector-curvature="0"
               d="m 236.2627,535.9742 c 0,0 0.0237,-7.6347 0,-9.4313 0,0 11.1198,-0.0223 11.6092,0.0227 0,2.0322 -0.0111,9.4652 -0.0111,9.4652"
               style="fill:none;stroke:#011F5B;stroke-width:0.47929999;stroke-linecap:butt;stroke-linejoin:miter;stroke-miterlimit:3.86360002;stroke-opacity:1;stroke-dasharray:none"
               id="path3083" />
            <path
               inkscape:connector-curvature="0"
               d="m 242.0792,536.446 0,-9.9254"
               style="fill:none;stroke:#011F5B;stroke-width:0.47929999;stroke-linecap:butt;stroke-linejoin:miter;stroke-miterlimit:3.86360002;stroke-opacity:1;stroke-dasharray:none"
               id="path3085" />
            <path
               inkscape:connector-curvature="0"
               d="m 242.2545,527.7443 c 0.4894,-0.0223 1.3879,-0.3526 2.2613,-0.6174 1.1301,-0.3424 2.3291,-0.1025 3.2164,-0.2806 0.2798,-0.0562 -5.4777,-0.1012 -5.4777,-0.1012 0.0228,1.112 0,0.9992 0,0.9992"
               style="fill:#011F5B;fill-opacity:1;fill-rule:nonzero;stroke:none"
               id="path3087" />
            <path
               inkscape:connector-curvature="0"
               d="m 242.2545,527.7443 c 0.4894,-0.0223 1.3879,-0.3526 2.2613,-0.6174 1.1301,-0.3424 2.3291,-0.1025 3.2164,-0.2806 0.2798,-0.0562 -5.4777,-0.1012 -5.4777,-0.1012 0.0228,1.112 0,0.9992 0,0.9992 z"
               style="fill:none;stroke:#011F5B;stroke-width:0.47929999;stroke-linecap:butt;stroke-linejoin:miter;stroke-miterlimit:3.86360002;stroke-opacity:1;stroke-dasharray:none"
               id="path3089" />
            <path
               inkscape:connector-curvature="0"
               d="m 241.4261,526.2734 c 0,0.2481 0.2898,0.4494 0.647,0.4494 0.3581,0 0.6471,-0.2013 0.6471,-0.4494 0,-0.2478 -0.289,-0.4486 -0.6471,-0.4486 -0.3572,0 -0.647,0.2008 -0.647,0.4486"
               style="fill:#011F5B;fill-opacity:1;fill-rule:nonzero;stroke:none"
               id="path3091" />
            <path
               inkscape:connector-curvature="0"
               d="m 241.4261,526.2734 c 0,0.2481 0.2898,0.4494 0.647,0.4494 0.3581,0 0.6471,-0.2013 0.6471,-0.4494 0,-0.2478 -0.289,-0.4486 -0.6471,-0.4486 -0.3572,0 -0.647,0.2008 -0.647,0.4486 z"
               style="fill:none;stroke:#011F5B;stroke-width:0.47929999;stroke-linecap:butt;stroke-linejoin:miter;stroke-miterlimit:3.86360002;stroke-opacity:1;stroke-dasharray:none"
               id="path3093" />
            <path
               inkscape:connector-curvature="0"
               d="m 241.7558,527.7443 c -0.4894,-0.0223 -1.3879,-0.3526 -2.2613,-0.6174 -1.1305,-0.3424 -2.3296,-0.1025 -3.2165,-0.2806 -0.2797,-0.0562 5.4778,-0.1012 5.4778,-0.1012 -0.0232,1.112 0,0.9992 0,0.9992"
               style="fill:#011F5B;fill-opacity:1;fill-rule:nonzero;stroke:none"
               id="path3095" />
            <path
               inkscape:connector-curvature="0"
               d="m 241.7558,527.7443 c -0.4894,-0.0223 -1.3879,-0.3526 -2.2613,-0.6174 -1.1305,-0.3424 -2.3296,-0.1025 -3.2165,-0.2806 -0.2797,-0.0562 5.4778,-0.1012 5.4778,-0.1012 -0.0232,1.112 0,0.9992 0,0.9992 z"
               style="fill:none;stroke:#011F5B;stroke-width:0.47929999;stroke-linecap:butt;stroke-linejoin:miter;stroke-miterlimit:3.86360002;stroke-opacity:1;stroke-dasharray:none"
               id="path3097" />
            <path
               inkscape:connector-curvature="0"
               d="m 203.5513,523.4336 c 0.1864,-0.7297 0.7342,-1.2126 1.6319,-1.2126 1.6667,0 3.2753,1.2353 4.2425,1.931 0.7579,0.5391 1.5386,1.1115 1.5386,2.2907 l -0.1397,-0.449 c 0,0 1.3059,1.302 4.5223,0.2694 0.8939,-0.287 4.7212,-2.4361 5.5488,-2.7845 0.7112,-0.3034 3.2035,-2.0911 7.0986,-1.4018 0,0 5.9468,0.8182 4.6182,6.9422 -0.9495,4.3771 -0.6549,4.6878 -0.2936,6.0915 -0.1396,0.0672 -3.6367,0.8531 -3.5434,-3.9972 -1.5159,-0.1572 -3.4508,-1.302 -2.1919,-4.3116 0.5131,0.764 1.2005,1.5721 2.1449,1.5721 0.5943,0 1.2205,-0.854 1.259,-1.4821 0.0933,-1.5271 -1.4454,-2.2006 -3.3566,-1.8861 -0.9694,0.1591 -1.8619,1.2329 -3.1979,2.1997 0.2334,0.1123 0.4463,0.8989 0.4463,1.2135 0,0.7746 -0.6643,1.1336 -1.1184,1.3925 0.0932,0.269 0.2788,0.6285 0.2788,0.8981 0,0.6173 -0.874,0.5723 -1.2111,0.808 0.1391,0.1912 0.1391,0.0784 0.1391,0.3595 0,0.8985 0.1401,1.3925 -1.6783,1.347 0.1517,0.8874 -0.0352,1.4598 -0.6527,1.7071 l -1.3521,0.1795 c -0.8391,0.1568 -0.002,0.4365 -0.777,1.1828 -0.6906,0.6667 -1.8281,0 -1.8281,0 0,0.6175 -0.4258,1.1078 -1.1717,1.1078 -0.3962,0 -0.8855,-0.0339 -1.1653,-0.18 l -0.5593,-0.449 c -0.6996,0 -0.8744,0.629 -1.6788,0.629 -0.8039,0 -1.1305,-0.629 -1.4454,-1.0331 -0.5479,0.2584 -0.6179,0.7185 -1.3521,0.7185 -0.431,0 -0.559,-0.4601 -0.746,-0.6735 -0.4777,-0.5279 -0.4439,-1.0747 -1.1898,-1.3443 l -0.2773,0.4881 c -0.009,0.0305 -0.0172,0.0616 -0.0247,0.0927 -1.0961,-0.5279 -3.5681,-6.1638 -3.5681,-7.3198 0,-1.1008 0.9571,-0.6184 0.9571,-1.7975 0,-0.6958 -1.0257,-1.2014 -1.0257,-1.7961 0,-0.7524 0.874,-1.1225 1.6315,-1.1225"
               style="fill:#ffffff;fill-opacity:1;fill-rule:nonzero;stroke:none"
               id="path3099" />
            <path
               inkscape:connector-curvature="0"
               d="m 203.5513,523.4336 c 0.1864,-0.7297 0.7342,-1.2126 1.6319,-1.2126 1.6667,0 3.2753,1.2353 4.2425,1.931 0.7579,0.5391 1.5386,1.1115 1.5386,2.2907 l -0.1397,-0.449 c 0,0 1.3059,1.302 4.5223,0.2694 0.8939,-0.287 4.7212,-2.4361 5.5488,-2.7845 0.7112,-0.3034 3.2035,-2.0911 7.0986,-1.4018 0,0 5.9468,0.8182 4.6182,6.9422 -0.9495,4.3771 -0.6549,4.6878 -0.2936,6.0915 -0.1396,0.0672 -3.6367,0.8531 -3.5434,-3.9972 -1.5159,-0.1572 -3.4508,-1.302 -2.1919,-4.3116 0.5131,0.764 1.2005,1.5721 2.1449,1.5721 0.5943,0 1.2205,-0.854 1.259,-1.4821 0.0933,-1.5271 -1.4454,-2.2006 -3.3566,-1.8861 -0.9694,0.1591 -1.8619,1.2329 -3.1979,2.1997 0.2334,0.1123 0.4463,0.8989 0.4463,1.2135 0,0.7746 -0.6643,1.1336 -1.1184,1.3925 0.0932,0.269 0.2788,0.6285 0.2788,0.8981 0,0.6173 -0.874,0.5723 -1.2111,0.808 0.1391,0.1912 0.1391,0.0784 0.1391,0.3595 0,0.8985 0.1401,1.3925 -1.6783,1.347 0.1517,0.8874 -0.0352,1.4598 -0.6527,1.7071 l -1.3521,0.1795 c -0.8391,0.1568 -0.002,0.4365 -0.777,1.1828 -0.6906,0.6667 -1.8281,0 -1.8281,0 0,0.6175 -0.4258,1.1078 -1.1717,1.1078 -0.3962,0 -0.8855,-0.0339 -1.1653,-0.18 l -0.5593,-0.449 c -0.6996,0 -0.8744,0.629 -1.6788,0.629 -0.8039,0 -1.1305,-0.629 -1.4454,-1.0331 -0.5479,0.2584 -0.6179,0.7185 -1.3521,0.7185 -0.431,0 -0.559,-0.4601 -0.746,-0.6735 -0.4777,-0.5279 -0.4439,-1.0747 -1.1898,-1.3443 l -0.2773,0.4881 c -0.009,0.0305 -0.0172,0.0616 -0.0247,0.0927 -1.0961,-0.5279 -3.5681,-6.1638 -3.5681,-7.3198 0,-1.1008 0.9571,-0.6184 0.9571,-1.7975 0,-0.6958 -1.0257,-1.2014 -1.0257,-1.7961 0,-0.7524 0.874,-1.1225 1.6315,-1.1225 l -0.5126,-0.18 z"
               style="fill:none;stroke:#011F5B;stroke-width:0.479;stroke-linecap:butt;stroke-linejoin:miter;stroke-miterlimit:3.86360002;stroke-opacity:1;stroke-dasharray:none"
               id="path3101" />
            <path
               inkscape:connector-curvature="0"
               d="m 206.1271,528.1688 c 0,0 1.2126,-0.4667 1.2126,-0.7186 0,-0.3414 -0.7835,-0.718 -1.3058,-1.1676 l -0.6527,0 c 0.2334,0.7635 0,0.4853 0,1.1676 0,0.5121 0.5409,0.7186 0.7459,0.7186"
               style="fill:#011F5B;fill-opacity:1;fill-rule:nonzero;stroke:none"
               id="path3103" />
            <path
               inkscape:connector-curvature="0"
               d="m 206.1271,528.1688 c 0,0 1.2126,-0.4667 1.2126,-0.7186 0,-0.3414 -0.7835,-0.718 -1.3058,-1.1676 l -0.6527,0 c 0.2334,0.7635 0,0.4853 0,1.1676 0,0.5121 0.5409,0.7186 0.7459,0.7186 z"
               style="fill:none;stroke:#011F5B;stroke-width:0.47929999;stroke-linecap:butt;stroke-linejoin:miter;stroke-miterlimit:3.86360002;stroke-opacity:1;stroke-dasharray:none"
               id="path3105" />
            <path
               inkscape:connector-curvature="0"
               d="m 210.5565,530.2358 c 0.6295,0.3028 0.3378,1.0774 1.3518,1.0774 0.8976,0 1.2358,-0.6284 2.0516,-0.6284 0.5479,0 0.9325,0.539 1.6783,0.539 0.6643,0 1.5387,-0.8985 1.3991,-1.9761 0,0 2.3309,0.7635 2.2377,-1.7515 1.8647,0.6285 1.6787,-0.9098 1.8647,-1.6617 0.1869,-0.719 1.3995,-0.1349 1.2125,-1.6615"
               style="fill:none;stroke:#011F5B;stroke-width:0.47929999;stroke-linecap:butt;stroke-linejoin:miter;stroke-miterlimit:3.86360002;stroke-opacity:1;stroke-dasharray:none"
               id="path3107" />
            <path
               inkscape:connector-curvature="0"
               d="m 185.6729,535.97 1.8763,0 c 1.3754,0.3145 1.8768,1.1119 3.2875,1.1119 1.014,0 1.4917,-0.6739 2.2377,-0.6739 0.629,0 1.597,0.7185 2.6574,0.7185 1.0841,0 1.6203,-0.6513 2.3314,-0.9542 0.6295,-0.2695 1.457,-0.2556 2.3314,-0.2556 -0.0237,-0.6286 0,-1.002 0,-1.5299 0,-0.539 0.7223,-0.3256 0.7223,-1.2009 0,-0.9208 -0.9323,-0.7413 -0.9323,-1.1114 l -0.0349,-3.4253 c 0.0464,-0.4262 0.9092,-0.4823 0.9092,-1.1336 0,-0.9657 -0.9607,-0.6313 -0.8976,-1.3921 0.0464,-0.5617 0,-1.7516 0,-1.7516 -1.8536,0 -13.5213,-0.0115 -14.1039,0.0112 0.0353,1.2687 -0.0199,1.0952 0.0232,1.7066 0.0348,0.494 -1.0724,0.7969 -1.0724,1.6282 0,0.5724 0.6647,0.539 0.7227,1.0774 l 0,3.4137 c -0.0348,0.4486 -1.0372,0.6736 -1.0024,1.3137 0.0417,0.7649 0.9328,0.667 0.9328,1.1787 0,0.2245 0.0232,1.0553 0.0116,1.2686"
               style="fill:#ffffff;fill-opacity:1;fill-rule:nonzero;stroke:none"
               id="path3109" />
            <path
               inkscape:connector-curvature="0"
               d="m 185.6729,535.97 1.8763,0 c 1.3754,0.3145 1.8768,1.1119 3.2875,1.1119 1.014,0 1.4917,-0.6739 2.2377,-0.6739 0.629,0 1.597,0.7185 2.6574,0.7185 1.0841,0 1.6203,-0.6513 2.3314,-0.9542 0.6295,-0.2695 1.457,-0.2556 2.3314,-0.2556 -0.0237,-0.6286 0,-1.002 0,-1.5299 0,-0.539 0.7223,-0.3256 0.7223,-1.2009 0,-0.9208 -0.9323,-0.7413 -0.9323,-1.1114 l -0.0349,-3.4253 c 0.0464,-0.4262 0.9092,-0.4823 0.9092,-1.1336 0,-0.9657 -0.9607,-0.6313 -0.8976,-1.3921 0.0464,-0.5617 0,-1.7516 0,-1.7516 -1.8536,0 -13.5213,-0.0115 -14.1039,0.0112 0.0353,1.2687 -0.0199,1.0952 0.0232,1.7066 0.0348,0.494 -1.0724,0.7969 -1.0724,1.6282 0,0.5724 0.6647,0.539 0.7227,1.0774 l 0,3.4137 c -0.0348,0.4486 -1.0372,0.6736 -1.0024,1.3137 0.0417,0.7649 0.9328,0.667 0.9328,1.1787 0,0.2245 0.0232,1.0553 0.0116,1.2686 z"
               style="fill:none;stroke:#011F5B;stroke-width:0.47929999;stroke-linecap:butt;stroke-linejoin:miter;stroke-miterlimit:3.86360002;stroke-opacity:1;stroke-dasharray:none"
               id="path3111" />
            <path
               inkscape:connector-curvature="0"
               d="m 187.1995,535.9139 c 0,0 0.0232,-7.6348 0,-9.4313 0,0 11.1203,-0.0223 11.6096,0.0227 0,2.0322 -0.012,9.4647 -0.012,9.4647"
               style="fill:none;stroke:#011F5B;stroke-width:0.47929999;stroke-linecap:butt;stroke-linejoin:miter;stroke-miterlimit:3.86360002;stroke-opacity:1;stroke-dasharray:none"
               id="path3113" />
            <path
               inkscape:connector-curvature="0"
               d="m 193.0159,536.3857 0,-9.9254"
               style="fill:none;stroke:#011F5B;stroke-width:0.47929999;stroke-linecap:butt;stroke-linejoin:miter;stroke-miterlimit:3.86360002;stroke-opacity:1;stroke-dasharray:none"
               id="path3115" />
            <path
               inkscape:connector-curvature="0"
               d="m 193.1908,527.684 c 0.4899,-0.0227 1.3889,-0.3531 2.2618,-0.6175 1.13,-0.3427 2.3291,-0.1024 3.2164,-0.2806 0.2803,-0.0561 -5.4782,-0.101 -5.4782,-0.101 0.0232,1.1114 0,0.9991 0,0.9991"
               style="fill:#011F5B;fill-opacity:1;fill-rule:nonzero;stroke:none"
               id="path3117" />
            <path
               inkscape:connector-curvature="0"
               d="m 193.1908,527.684 c 0.4899,-0.0227 1.3889,-0.3531 2.2618,-0.6175 1.13,-0.3427 2.3291,-0.1024 3.2164,-0.2806 0.2803,-0.0561 -5.4782,-0.101 -5.4782,-0.101 0.0232,1.1114 0,0.9991 0,0.9991 z"
               style="fill:none;stroke:#011F5B;stroke-width:0.47929999;stroke-linecap:butt;stroke-linejoin:miter;stroke-miterlimit:3.86360002;stroke-opacity:1;stroke-dasharray:none"
               id="path3119" />
            <path
               inkscape:connector-curvature="0"
               d="m 192.3632,526.2131 c 0,0.2481 0.2895,0.4494 0.6471,0.4494 0.3577,0 0.6467,-0.2013 0.6467,-0.4494 0,-0.2478 -0.289,-0.4491 -0.6467,-0.4491 -0.3576,0 -0.6471,0.2013 -0.6471,0.4491"
               style="fill:#011F5B;fill-opacity:1;fill-rule:nonzero;stroke:none"
               id="path3121" />
            <path
               inkscape:connector-curvature="0"
               d="m 192.3632,526.2131 c 0,0.2481 0.2895,0.4494 0.6471,0.4494 0.3577,0 0.6467,-0.2013 0.6467,-0.4494 0,-0.2478 -0.289,-0.4491 -0.6467,-0.4491 -0.3576,0 -0.6471,0.2013 -0.6471,0.4491 z"
               style="fill:none;stroke:#011F5B;stroke-width:0.47929999;stroke-linecap:butt;stroke-linejoin:miter;stroke-miterlimit:3.86360002;stroke-opacity:1;stroke-dasharray:none"
               id="path3123" />
            <path
               inkscape:connector-curvature="0"
               d="m 192.693,527.684 c -0.4893,-0.0227 -1.3883,-0.3531 -2.2608,-0.6175 -1.1309,-0.3427 -2.3296,-0.1024 -3.2174,-0.2806 -0.2797,-0.0561 5.4782,-0.101 5.4782,-0.101 -0.0231,1.1114 0,0.9991 0,0.9991"
               style="fill:#011F5B;fill-opacity:1;fill-rule:nonzero;stroke:none"
               id="path3125" />
            <path
               inkscape:connector-curvature="0"
               d="m 192.693,527.684 c -0.4893,-0.0227 -1.3883,-0.3531 -2.2608,-0.6175 -1.1309,-0.3427 -2.3296,-0.1024 -3.2174,-0.2806 -0.2797,-0.0561 5.4782,-0.101 5.4782,-0.101 -0.0231,1.1114 0,0.9991 0,0.9991 z"
               style="fill:none;stroke:#011F5B;stroke-width:0.47929999;stroke-linecap:butt;stroke-linejoin:miter;stroke-miterlimit:3.86360002;stroke-opacity:1;stroke-dasharray:none"
               id="path3127" />
            <path
               inkscape:connector-curvature="0"
               d="m 194.9168,491.9022 c 0,3.2026 2.6947,5.8003 6.0192,5.8003 3.3245,0 6.0196,-2.5977 6.0196,-5.8003 0,-3.2025 -2.6951,-5.7965 -6.0196,-5.7965 -3.3245,0 -6.0192,2.594 -6.0192,5.7965"
               style="fill:#ffffff;fill-opacity:1;fill-rule:nonzero;stroke:none"
               id="path3129" />
            <path
               inkscape:connector-curvature="0"
               d="m 194.9168,491.9022 c 0,3.2026 2.6947,5.8003 6.0192,5.8003 3.3245,0 6.0196,-2.5977 6.0196,-5.8003 0,-3.2025 -2.6951,-5.7965 -6.0196,-5.7965 -3.3245,0 -6.0192,2.594 -6.0192,5.7965 z"
               style="fill:none;stroke:#011F5B;stroke-width:0.47929999;stroke-linecap:butt;stroke-linejoin:miter;stroke-miterlimit:3.86360002;stroke-opacity:1;stroke-dasharray:none"
               id="path3131" />
            <path
               inkscape:connector-curvature="0"
               d="m 211.4658,505.8298 c 0,3.2025 2.6951,5.7983 6.0191,5.7983 3.3245,0 6.0191,-2.5958 6.0191,-5.7983 0,-3.203 -2.6946,-5.7969 -6.0191,-5.7969 -3.324,0 -6.0191,2.5939 -6.0191,5.7969"
               style="fill:#ffffff;fill-opacity:1;fill-rule:nonzero;stroke:none"
               id="path3133" />
            <path
               inkscape:connector-curvature="0"
               d="m 211.4658,505.8298 c 0,3.2025 2.6951,5.7983 6.0191,5.7983 3.3245,0 6.0191,-2.5958 6.0191,-5.7983 0,-3.203 -2.6946,-5.7969 -6.0191,-5.7969 -3.324,0 -6.0191,2.5939 -6.0191,5.7969 z"
               style="fill:none;stroke:#011F5B;stroke-width:0.479;stroke-linecap:butt;stroke-linejoin:miter;stroke-miterlimit:3.86360002;stroke-opacity:1;stroke-dasharray:none"
               id="path3135" />
            <path
               inkscape:connector-curvature="0"
               d="m 227.0791,491.9022 c 0,3.2026 2.695,5.8003 6.02,5.8003 3.3241,0 6.0192,-2.5977 6.0192,-5.8003 0,-3.2025 -2.6951,-5.7965 -6.0192,-5.7965 -3.325,0 -6.02,2.594 -6.02,5.7965"
               style="fill:#ffffff;fill-opacity:1;fill-rule:nonzero;stroke:none"
               id="path3137" />
            <path
               inkscape:connector-curvature="0"
               d="m 227.0791,491.9022 c 0,3.2026 2.695,5.8003 6.02,5.8003 3.3241,0 6.0192,-2.5977 6.0192,-5.8003 0,-3.2025 -2.6951,-5.7965 -6.0192,-5.7965 -3.325,0 -6.02,2.594 -6.02,5.7965 z"
               style="fill:none;stroke:#011F5B;stroke-width:0.47929999;stroke-linecap:butt;stroke-linejoin:miter;stroke-miterlimit:3.86360002;stroke-opacity:1;stroke-dasharray:none"
               id="path3139" />
            <path
               inkscape:connector-curvature="0"
               d="m 223.5226,527.4437 c -1.5382,1.6931 -2.895,3.6808 -3.1288,3.7801 -0.7575,0.3145 -2.5638,3.9071 -7.413,4.1766 -1.2311,0.0687 -5.8685,-0.3817 -6.0275,-1.5683"
               style="fill:none;stroke:#011F5B;stroke-width:0.47929999;stroke-linecap:butt;stroke-linejoin:miter;stroke-miterlimit:3.86360002;stroke-opacity:1;stroke-dasharray:none"
               id="path3141" />
            <path
               inkscape:connector-curvature="0"
               d="m 210.9949,526.1379 c 0.0181,0.116 0.0278,0.2398 0.0278,0.3702 0,0.1925 -1.1364,0.0835 -1.4064,0.1637 -0.1864,0.0562 0.4997,0.3303 0.3804,0.3303 0.6995,0.2694 2.4914,1.0581 1.8652,1.6616 -0.6062,0.584 -0.9676,1.2014 -1.3054,1.5721 -0.4545,0.4939 -0.9912,0.7635 -1.8187,0.7635 -0.7112,0 -1.8634,-1.2335 -2.3412,-1.5708 0.3498,0.3373 1.3619,1.2117 1.3619,1.9303 0,1.6165 -1.2932,3.0202 -1.6314,4.3561"
               style="fill:none;stroke:#011F5B;stroke-width:0.47929999;stroke-linecap:butt;stroke-linejoin:miter;stroke-miterlimit:3.86360002;stroke-opacity:1;stroke-dasharray:none"
               id="path3143" />
            <path
               inkscape:connector-curvature="0"
               d="m 204.0244,523.679 c 1.2817,0 2.0044,0.0894 2.6111,0.404 0.6638,0.3479 1.8648,1.1003 2.1445,1.7515"
               style="fill:none;stroke:#011F5B;stroke-width:0.47929999;stroke-linecap:butt;stroke-linejoin:miter;stroke-miterlimit:3.86360002;stroke-opacity:1;stroke-dasharray:none"
               id="path3145" />
            <path
               inkscape:connector-curvature="0"
               d="m 183.0479,541.2382 68.9918,0 c 0,0 0,-33.893 0,-34.4909 -0.4666,-28.1135 -31.972,-42.8905 -35.9352,-42.7551 -4.1215,0.141 -33.1499,14.6007 -33.0636,42.9013 0.001,0.5093 0.007,34.3447 0.007,34.3447 z"
               style="fill:none;stroke:#011F5B;stroke-width:0.94999999;stroke-linecap:butt;stroke-linejoin:miter;stroke-miterlimit:3.86360002;stroke-opacity:1;stroke-dasharray:none"
               id="path3147" />
          </g>
        </g>
      </g>
    </g>
  </g>
</svg>